<svg width="44" height="44" viewBox="0 0 44 44" fill="none" xmlns="http://www.w3.org/2000/svg">
<path d="M5.5 33V11H13.75C15.2087 11 16.6076 11.5795 17.6391 12.6109C18.6705 13.6424 19.25 15.0413 19.25 16.5C19.25 17.9587 18.6705 19.3576 17.6391 20.3891C16.6076 21.4205 15.2087 22 13.75 22C15.2087 22 16.6076 22.5795 17.6391 23.6109C18.6705 24.6424 19.25 26.0413 19.25 27.5C19.25 28.9587 18.6705 30.3576 17.6391 31.3891C16.6076 32.4205 15.2087 33 13.75 33H5.5Z" stroke="#888787" stroke-width="2.75" stroke-linecap="round" stroke-linejoin="round"/>
<path d="M5.5 22H13.75" stroke="#888787" stroke-width="2.75" stroke-linecap="round" stroke-linejoin="round"/>
<path d="M25.667 23.8334H38.5003C38.5003 22.1315 37.8243 20.4994 36.6209 19.2961C35.4176 18.0927 33.7855 17.4167 32.0837 17.4167C30.3819 17.4167 28.7497 18.0927 27.5464 19.2961C26.343 20.4994 25.667 22.1315 25.667 23.8334V27.5C25.8561 28.8726 26.4844 30.1471 27.4579 31.1329C28.4315 32.1187 29.6979 32.763 31.068 32.9693C32.4381 33.1757 33.8381 32.933 35.0589 32.2776C36.2796 31.6222 37.2554 30.5893 37.8403 29.3334" stroke="#888787" stroke-width="2.75" stroke-linecap="round" stroke-linejoin="round"/>
<path d="M29.333 11H34.833" stroke="#888787" stroke-width="2.75" stroke-linecap="round" stroke-linejoin="round"/>
</svg>
